<svg width="96" height="96" viewBox="0 0 96 96" fill="none" xmlns="http://www.w3.org/2000/svg">
<rect width="96" height="96" rx="10" fill="#013369"/>
<path d="M76.8252 18.4082L76.8297 18.4125C77.1543 18.7446 77.4855 19.4043 77.759 20.4227C78.0309 21.4353 78.2298 22.7398 78.3296 24.2827C78.5291 27.3668 78.3301 31.358 77.5628 35.7797L77.5615 35.7872L77.5604 35.7947C77.5224 36.0615 77.4845 36.3265 77.4467 36.5803C75.9166 35.7914 74.4585 34.9433 73.1183 33.9858L73.1117 33.9811L73.1049 33.9766C70.6983 32.3727 68.5161 30.6261 66.5544 28.6644C64.6661 26.776 62.9186 24.5929 61.3871 22.3317L61.3862 22.3305C60.4128 20.9026 59.4945 19.3552 58.6316 17.7897C58.8853 17.7385 59.1401 17.6988 59.4236 17.6583L59.4237 17.6585L59.434 17.6568C63.8937 16.9257 67.8864 16.7447 70.9629 16.9443C72.502 17.0442 73.8008 17.2386 74.8091 17.5021C75.8351 17.7701 76.4965 18.0937 76.8252 18.4082ZM47.6404 43.7675L45.4217 41.5489C44.343 40.4701 42.6273 40.4701 41.5485 41.5489C40.4697 42.6277 40.4697 44.3433 41.5485 45.4221L43.7671 47.6407L41.8335 49.5208L39.6049 47.2922C38.5377 46.2249 36.815 46.1994 35.7976 47.2998C34.7273 48.3781 34.729 50.0862 35.8025 51.1627C35.8034 51.1636 35.8043 51.1645 35.8052 51.1654L37.9603 53.384L36.3207 55.0236L36.313 55.0313L36.3057 55.0393C35.3203 56.114 35.3204 57.8065 36.3057 58.8812L36.313 58.8892L36.3207 58.8968C37.3994 59.9756 39.1151 59.9756 40.1939 58.8968L41.8285 57.2623L44.0521 59.4859C45.1309 60.5647 46.8465 60.5647 47.9253 59.4859C49.0041 58.4071 49.0041 56.6915 47.9253 55.6127L45.7017 53.389L47.6452 51.4455L49.8617 53.6619C50.8665 54.7478 52.6604 54.7503 53.6689 53.6694C54.7498 52.6609 54.7473 50.8669 53.6614 49.8621L51.4451 47.6456L53.3887 45.7021L55.6123 47.9257C56.6911 49.0045 58.4067 49.0045 59.4855 47.9257C60.5643 46.8469 60.5643 45.1313 59.4855 44.0525L57.2619 41.8288L58.8965 40.1943C59.9753 39.1155 59.9753 37.3998 58.8965 36.321L58.8888 36.3134L58.8808 36.306C57.8061 35.3207 56.1136 35.3207 55.0389 36.306L55.0309 36.3134L55.0232 36.321L53.3836 37.9607L51.165 35.8056C51.1641 35.8047 51.1632 35.8038 51.1624 35.8029C50.0859 34.7293 48.3778 34.7277 47.2994 35.798C46.199 36.8154 46.2245 38.538 47.2918 39.6053L49.5204 41.8339L47.6404 43.7675ZM17.7882 58.6317C19.3539 59.4949 20.9012 60.4128 22.3291 61.3864L22.3291 61.3864L22.3365 61.3913C24.6609 62.9166 26.7686 64.6604 28.6597 66.5512C30.5557 68.5204 32.3031 70.6324 33.8304 72.8872L33.8304 72.8872L33.8339 72.8923C34.8692 74.3808 35.7862 75.8638 36.5871 77.4445C36.3307 77.4827 36.0627 77.521 35.7928 77.5595L35.7853 77.5606L35.7779 77.5619C31.3566 78.3292 27.3655 78.5282 24.2812 78.3286C22.7383 78.2288 21.4337 78.03 20.421 77.758C19.3947 77.4824 18.7326 77.1483 18.403 76.8213C18.0897 76.4911 17.7677 75.8311 17.5007 74.8093C17.2373 73.801 17.0429 72.5022 16.943 70.9632C16.7434 67.8867 16.9243 63.894 17.6555 59.4341L17.6556 59.4341L17.657 59.4238C17.6975 59.14 17.7371 58.8853 17.7882 58.6317ZM25.3976 56.8785L25.3956 56.8772C23.4262 55.5411 21.3212 54.2699 19.0813 53.1282C21.2228 45.6454 25.0661 37.7237 31.3587 31.3589C37.725 25.0649 45.6489 21.2213 53.1327 19.0801C54.2704 21.2558 55.539 23.4241 56.8771 25.3958L56.8784 25.3978C58.6604 27.9968 60.5944 30.3773 62.754 32.537L62.7541 32.537C64.9124 34.6948 67.3658 36.7025 70.0409 38.4862C71.9446 39.8254 74.0427 41.0279 76.2089 42.0953C74.066 49.6406 70.1532 57.492 63.8587 63.8588C57.4905 70.1546 49.6367 74.0678 42.0905 76.2104C40.9618 73.9757 39.752 71.7987 38.3362 69.8159C36.5552 67.2189 34.6223 64.8397 32.5368 62.7542C30.3771 60.5945 27.9966 58.6606 25.3976 56.8785ZM80.6916 14.5266L80.6862 14.5213C79.9824 13.8383 78.8791 13.2655 77.5056 12.8089C76.1226 12.3491 74.4239 11.9935 72.4893 11.7697C68.6197 11.3222 63.7687 11.3981 58.5364 12.2516L58.6169 12.745L58.5335 12.252C48.4502 13.9573 36.5624 18.4829 27.5588 27.5605C18.4831 36.636 13.9575 48.4492 12.252 58.5335L12.252 58.5335L12.2515 58.5364C11.398 63.7687 11.3222 68.6196 11.7697 72.4893C11.9935 74.4238 12.3491 76.1225 12.8089 77.5056C13.2655 78.8791 13.8383 79.9823 14.5213 80.6862L14.5266 80.6916C15.2318 81.3966 16.3423 81.9797 17.7224 82.4401C19.1123 82.9037 20.8186 83.257 22.7578 83.4761C26.6369 83.9144 31.4877 83.8199 36.6823 82.9665L36.6846 82.9661C46.7663 81.2611 58.6546 76.8099 67.7322 67.7323C76.8102 58.6549 81.2611 46.766 82.9661 36.6846L82.9665 36.6823C83.8199 31.4875 83.9145 26.6367 83.4763 22.7577C83.2572 20.8186 82.9039 19.1122 82.4403 17.7224C81.9798 16.3423 81.3967 15.2318 80.6916 14.5266Z" fill="white" stroke="white"/>
</svg>
